ISO-10303-21;
HEADER;
FILE_DESCRIPTION(('Open CASCADE Model'),'2;1');
FILE_NAME('Open CASCADE Shape Model','2025-07-21T08:55:27',('Author'),(
    'Open CASCADE'),'Open CASCADE STEP processor 7.7','Open CASCADE 7.7'
  ,'Unknown');
FILE_SCHEMA(('AUTOMOTIVE_DESIGN { 1 0 10303 214 1 1 1 1 }'));
ENDSEC;
DATA;
#1 = APPLICATION_PROTOCOL_DEFINITION('international standard',
  'automotive_design',2000,#2);
#2 = APPLICATION_CONTEXT(
  'core data for automotive mechanical design processes');
#3 = SHAPE_DEFINITION_REPRESENTATION(#4,#10);
#4 = PRODUCT_DEFINITION_SHAPE('','',#5);
#5 = PRODUCT_DEFINITION('design','',#6,#9);
#6 = PRODUCT_DEFINITION_FORMATION('','',#7);
#7 = PRODUCT('Open CASCADE STEP translator 7.7 1',
  'Open CASCADE STEP translator 7.7 1','',(#8));
#8 = PRODUCT_CONTEXT('',#2,'mechanical');
#9 = PRODUCT_DEFINITION_CONTEXT('part definition',#2,'design');
#10 = SHAPE_REPRESENTATION('',(#11,#15,#19),#23);
#11 = AXIS2_PLACEMENT_3D('',#12,#13,#14);
#12 = CARTESIAN_POINT('',(0.,0.,0.));
#13 = DIRECTION('',(0.,0.,1.));
#14 = DIRECTION('',(1.,0.,-0.));
#15 = AXIS2_PLACEMENT_3D('',#16,#17,#18);
#16 = CARTESIAN_POINT('',(0.,0.,0.));
#17 = DIRECTION('',(0.,0.,1.));
#18 = DIRECTION('',(1.,0.,-0.));
#19 = AXIS2_PLACEMENT_3D('',#20,#21,#22);
#20 = CARTESIAN_POINT('',(0.,0.,0.));
#21 = DIRECTION('',(0.,0.,1.));
#22 = DIRECTION('',(1.,0.,-0.));
#23 = ( GEOMETRIC_REPRESENTATION_CONTEXT(3) 
GLOBAL_UNCERTAINTY_ASSIGNED_CONTEXT((#27)) GLOBAL_UNIT_ASSIGNED_CONTEXT(
(#24,#25,#26)) REPRESENTATION_CONTEXT('Context #1',
  '3D Context with UNIT and UNCERTAINTY') );
#24 = ( LENGTH_UNIT() NAMED_UNIT(*) SI_UNIT(.MILLI.,.METRE.) );
#25 = ( NAMED_UNIT(*) PLANE_ANGLE_UNIT() SI_UNIT($,.RADIAN.) );
#26 = ( NAMED_UNIT(*) SI_UNIT($,.STERADIAN.) SOLID_ANGLE_UNIT() );
#27 = UNCERTAINTY_MEASURE_WITH_UNIT(LENGTH_MEASURE(2.E-07),#24,
  'distance_accuracy_value','confusion accuracy');
#28 = PRODUCT_RELATED_PRODUCT_CATEGORY('part',$,(#7));
#29 = SHAPE_DEFINITION_REPRESENTATION(#30,#36);
#30 = PRODUCT_DEFINITION_SHAPE('','',#31);
#31 = PRODUCT_DEFINITION('design','',#32,#35);
#32 = PRODUCT_DEFINITION_FORMATION('','',#33);
#33 = PRODUCT('Open CASCADE STEP translator 7.7 1.1',
  'Open CASCADE STEP translator 7.7 1.1','',(#34));
#34 = PRODUCT_CONTEXT('',#2,'mechanical');
#35 = PRODUCT_DEFINITION_CONTEXT('part definition',#2,'design');
#36 = ADVANCED_BREP_SHAPE_REPRESENTATION('',(#11,#37),#138);
#37 = MANIFOLD_SOLID_BREP('',#38);
#38 = CLOSED_SHELL('',(#39,#108,#133));
#39 = ADVANCED_FACE('',(#40),#55,.T.);
#40 = FACE_BOUND('',#41,.F.);
#41 = EDGE_LOOP('',(#42,#78));
#42 = ORIENTED_EDGE('',*,*,#43,.F.);
#43 = EDGE_CURVE('',#44,#46,#48,.T.);
#44 = VERTEX_POINT('',#45);
#45 = CARTESIAN_POINT('',(-4.452630396215E-02,-0.2995,0.));
#46 = VERTEX_POINT('',#47);
#47 = CARTESIAN_POINT('',(5.852630396214E-02,-0.2995,0.));
#48 = SURFACE_CURVE('',#49,(#54,#66),.PCURVE_S1.);
#49 = CIRCLE('',#50,0.3039);
#50 = AXIS2_PLACEMENT_3D('',#51,#52,#53);
#51 = CARTESIAN_POINT('',(7.E-03,0.,0.));
#52 = DIRECTION('',(0.,0.,1.));
#53 = DIRECTION('',(1.,0.,0.));
#54 = PCURVE('',#55,#60);
#55 = CYLINDRICAL_SURFACE('',#56,0.3039);
#56 = AXIS2_PLACEMENT_3D('',#57,#58,#59);
#57 = CARTESIAN_POINT('',(7.E-03,0.,0.));
#58 = DIRECTION('',(-0.,-0.,-1.));
#59 = DIRECTION('',(1.,0.,0.));
#60 = DEFINITIONAL_REPRESENTATION('',(#61),#65);
#61 = LINE('',#62,#63);
#62 = CARTESIAN_POINT('',(-0.,0.));
#63 = VECTOR('',#64,1.);
#64 = DIRECTION('',(-1.,0.));
#65 = ( GEOMETRIC_REPRESENTATION_CONTEXT(2) 
PARAMETRIC_REPRESENTATION_CONTEXT() REPRESENTATION_CONTEXT('2D SPACE',''
  ) );
#66 = PCURVE('',#67,#72);
#67 = PLANE('',#68);
#68 = AXIS2_PLACEMENT_3D('',#69,#70,#71);
#69 = CARTESIAN_POINT('',(7.E-03,2.274775351024E-17,0.));
#70 = DIRECTION('',(0.,0.,1.));
#71 = DIRECTION('',(1.,0.,-0.));
#72 = DEFINITIONAL_REPRESENTATION('',(#73),#77);
#73 = CIRCLE('',#74,0.3039);
#74 = AXIS2_PLACEMENT_2D('',#75,#76);
#75 = CARTESIAN_POINT('',(2.081668171172E-17,-2.274775351024E-17));
#76 = DIRECTION('',(1.,0.));
#77 = ( GEOMETRIC_REPRESENTATION_CONTEXT(2) 
PARAMETRIC_REPRESENTATION_CONTEXT() REPRESENTATION_CONTEXT('2D SPACE',''
  ) );
#78 = ORIENTED_EDGE('',*,*,#79,.F.);
#79 = EDGE_CURVE('',#46,#44,#80,.T.);
#80 = SURFACE_CURVE('',#81,(#86,#96),.PCURVE_S1.);
#81 = ELLIPSE('',#82,14.431437070453,0.3039);
#82 = AXIS2_PLACEMENT_3D('',#83,#84,#85);
#83 = CARTESIAN_POINT('',(7.E-03,0.,-14.21933846153));
#84 = DIRECTION('',(0.,-0.999778251649,-2.105819389409E-02));
#85 = DIRECTION('',(-0.,2.105819389409E-02,-0.999778251649));
#86 = PCURVE('',#55,#87);
#87 = DEFINITIONAL_REPRESENTATION('',(#88),#95);
#88 = B_SPLINE_CURVE_WITH_KNOTS('',5,(#89,#90,#91,#92,#93,#94),
  .UNSPECIFIED.,.F.,.F.,(6,6),(2.97121917128,3.3119661359),
  .PIECEWISE_BEZIER_KNOTS.);
#89 = CARTESIAN_POINT('',(-4.882762462695,6.000000034589E-07));
#90 = CARTESIAN_POINT('',(-4.814613069771,-0.166714204269));
#91 = CARTESIAN_POINT('',(-4.746463676847,-0.250880398924));
#92 = CARTESIAN_POINT('',(-4.678314283923,-0.250880398924));
#93 = CARTESIAN_POINT('',(-4.610164890999,-0.166714204269));
#94 = CARTESIAN_POINT('',(-4.542015498075,6.000000034589E-07));
#95 = ( GEOMETRIC_REPRESENTATION_CONTEXT(2) 
PARAMETRIC_REPRESENTATION_CONTEXT() REPRESENTATION_CONTEXT('2D SPACE',''
  ) );
#96 = PCURVE('',#97,#102);
#97 = PLANE('',#98);
#98 = AXIS2_PLACEMENT_3D('',#99,#100,#101);
#99 = CARTESIAN_POINT('',(0.,-0.3125,0.6172));
#100 = DIRECTION('',(0.,-0.999778251649,-2.105819389409E-02));
#101 = DIRECTION('',(0.,2.105819389409E-02,-0.999778251649));
#102 = DEFINITIONAL_REPRESENTATION('',(#103),#107);
#103 = ELLIPSE('',#104,14.431437070453,0.3039);
#104 = AXIS2_PLACEMENT_2D('',#105,#106);
#105 = CARTESIAN_POINT('',(14.839829169189,7.E-03));
#106 = DIRECTION('',(1.,0.));
#107 = ( GEOMETRIC_REPRESENTATION_CONTEXT(2) 
PARAMETRIC_REPRESENTATION_CONTEXT() REPRESENTATION_CONTEXT('2D SPACE',''
  ) );
#108 = ADVANCED_FACE('',(#109),#67,.F.);
#109 = FACE_BOUND('',#110,.F.);
#110 = EDGE_LOOP('',(#111,#132));
#111 = ORIENTED_EDGE('',*,*,#112,.T.);
#112 = EDGE_CURVE('',#46,#44,#113,.T.);
#113 = SURFACE_CURVE('',#114,(#118,#125),.PCURVE_S1.);
#114 = LINE('',#115,#116);
#115 = CARTESIAN_POINT('',(0.375,-0.2995,0.));
#116 = VECTOR('',#117,1.);
#117 = DIRECTION('',(-1.,0.,0.));
#118 = PCURVE('',#67,#119);
#119 = DEFINITIONAL_REPRESENTATION('',(#120),#124);
#120 = LINE('',#121,#122);
#121 = CARTESIAN_POINT('',(0.368,-0.2995));
#122 = VECTOR('',#123,1.);
#123 = DIRECTION('',(-1.,0.));
#124 = ( GEOMETRIC_REPRESENTATION_CONTEXT(2) 
PARAMETRIC_REPRESENTATION_CONTEXT() REPRESENTATION_CONTEXT('2D SPACE',''
  ) );
#125 = PCURVE('',#97,#126);
#126 = DEFINITIONAL_REPRESENTATION('',(#127),#131);
#127 = LINE('',#128,#129);
#128 = CARTESIAN_POINT('',(0.617336893438,0.375));
#129 = VECTOR('',#130,1.);
#130 = DIRECTION('',(0.,-1.));
#131 = ( GEOMETRIC_REPRESENTATION_CONTEXT(2) 
PARAMETRIC_REPRESENTATION_CONTEXT() REPRESENTATION_CONTEXT('2D SPACE',''
  ) );
#132 = ORIENTED_EDGE('',*,*,#43,.T.);
#133 = ADVANCED_FACE('',(#134),#97,.F.);
#134 = FACE_BOUND('',#135,.F.);
#135 = EDGE_LOOP('',(#136,#137));
#136 = ORIENTED_EDGE('',*,*,#79,.T.);
#137 = ORIENTED_EDGE('',*,*,#112,.F.);
#138 = ( GEOMETRIC_REPRESENTATION_CONTEXT(3) 
GLOBAL_UNCERTAINTY_ASSIGNED_CONTEXT((#142)) GLOBAL_UNIT_ASSIGNED_CONTEXT
((#139,#140,#141)) REPRESENTATION_CONTEXT('Context #1',
  '3D Context with UNIT and UNCERTAINTY') );
#139 = ( LENGTH_UNIT() NAMED_UNIT(*) SI_UNIT(.MILLI.,.METRE.) );
#140 = ( NAMED_UNIT(*) PLANE_ANGLE_UNIT() SI_UNIT($,.RADIAN.) );
#141 = ( NAMED_UNIT(*) SI_UNIT($,.STERADIAN.) SOLID_ANGLE_UNIT() );
#142 = UNCERTAINTY_MEASURE_WITH_UNIT(LENGTH_MEASURE(1.E-07),#139,
  'distance_accuracy_value','confusion accuracy');
#143 = CONTEXT_DEPENDENT_SHAPE_REPRESENTATION(#144,#146);
#144 = ( REPRESENTATION_RELATIONSHIP('','',#36,#10) 
REPRESENTATION_RELATIONSHIP_WITH_TRANSFORMATION(#145) 
SHAPE_REPRESENTATION_RELATIONSHIP() );
#145 = ITEM_DEFINED_TRANSFORMATION('','',#11,#15);
#146 = PRODUCT_DEFINITION_SHAPE('Placement','Placement of an item',#147
  );
#147 = NEXT_ASSEMBLY_USAGE_OCCURRENCE('1','','',#5,#31,$);
#148 = PRODUCT_RELATED_PRODUCT_CATEGORY('part',$,(#33));
#149 = SHAPE_DEFINITION_REPRESENTATION(#150,#156);
#150 = PRODUCT_DEFINITION_SHAPE('','',#151);
#151 = PRODUCT_DEFINITION('design','',#152,#155);
#152 = PRODUCT_DEFINITION_FORMATION('','',#153);
#153 = PRODUCT('Open CASCADE STEP translator 7.7 1.2',
  'Open CASCADE STEP translator 7.7 1.2','',(#154));
#154 = PRODUCT_CONTEXT('',#2,'mechanical');
#155 = PRODUCT_DEFINITION_CONTEXT('part definition',#2,'design');
#156 = ADVANCED_BREP_SHAPE_REPRESENTATION('',(#11,#157),#459);
#157 = MANIFOLD_SOLID_BREP('',#158);
#158 = CLOSED_SHELL('',(#159,#399,#445,#450,#455));
#159 = ADVANCED_FACE('',(#160),#174,.T.);
#160 = FACE_BOUND('',#161,.F.);
#161 = EDGE_LOOP('',(#162,#192,#232,#233,#275,#307,#344,#373));
#162 = ORIENTED_EDGE('',*,*,#163,.F.);
#163 = EDGE_CURVE('',#164,#166,#168,.T.);
#164 = VERTEX_POINT('',#165);
#165 = CARTESIAN_POINT('',(0.3109,0.,0.3047));
#166 = VERTEX_POINT('',#167);
#167 = CARTESIAN_POINT('',(0.3109,0.,0.447513559322));
#168 = SEAM_CURVE('',#169,(#173,#185),.PCURVE_S1.);
#169 = LINE('',#170,#171);
#170 = CARTESIAN_POINT('',(0.3109,0.,0.));
#171 = VECTOR('',#172,1.);
#172 = DIRECTION('',(0.,0.,1.));
#173 = PCURVE('',#174,#179);
#174 = CYLINDRICAL_SURFACE('',#175,0.3039);
#175 = AXIS2_PLACEMENT_3D('',#176,#177,#178);
#176 = CARTESIAN_POINT('',(7.E-03,0.,0.));
#177 = DIRECTION('',(-0.,-0.,-1.));
#178 = DIRECTION('',(1.,0.,0.));
#179 = DEFINITIONAL_REPRESENTATION('',(#180),#184);
#180 = LINE('',#181,#182);
#181 = CARTESIAN_POINT('',(-6.28318530718,0.));
#182 = VECTOR('',#183,1.);
#183 = DIRECTION('',(-0.,-1.));
#184 = ( GEOMETRIC_REPRESENTATION_CONTEXT(2) 
PARAMETRIC_REPRESENTATION_CONTEXT() REPRESENTATION_CONTEXT('2D SPACE',''
  ) );
#185 = PCURVE('',#174,#186);
#186 = DEFINITIONAL_REPRESENTATION('',(#187),#191);
#187 = LINE('',#188,#189);
#188 = CARTESIAN_POINT('',(-0.,0.));
#189 = VECTOR('',#190,1.);
#190 = DIRECTION('',(-0.,-1.));
#191 = ( GEOMETRIC_REPRESENTATION_CONTEXT(2) 
PARAMETRIC_REPRESENTATION_CONTEXT() REPRESENTATION_CONTEXT('2D SPACE',''
  ) );
#192 = ORIENTED_EDGE('',*,*,#193,.F.);
#193 = EDGE_CURVE('',#164,#164,#194,.T.);
#194 = SURFACE_CURVE('',#195,(#200,#220),.PCURVE_S1.);
#195 = ELLIPSE('',#196,0.429779501605,0.3039);
#196 = AXIS2_PLACEMENT_3D('',#197,#198,#199);
#197 = CARTESIAN_POINT('',(7.E-03,0.,0.3047));
#198 = DIRECTION('',(0.,0.707106781187,0.707106781187));
#199 = DIRECTION('',(0.,0.707106781187,-0.707106781187));
#200 = PCURVE('',#174,#201);
#201 = DEFINITIONAL_REPRESENTATION('',(#202),#219);
#202 = B_SPLINE_CURVE_WITH_KNOTS('',8,(#203,#204,#205,#206,#207,#208,
    #209,#210,#211,#212,#213,#214,#215,#216,#217,#218),.UNSPECIFIED.,.F.
  ,.F.,(9,7,9),(4.712388980385,7.853981633974,10.995574287564),
  .UNSPECIFIED.);
#203 = CARTESIAN_POINT('',(0.,-0.3047));
#204 = CARTESIAN_POINT('',(-0.392699081699,-0.185358749072));
#205 = CARTESIAN_POINT('',(-0.785398163392,-6.601654657432E-02));
#206 = CARTESIAN_POINT('',(-1.178097245102,2.527137644316E-02));
#207 = CARTESIAN_POINT('',(-1.57079632677,6.052657822095E-02));
#208 = CARTESIAN_POINT('',(-1.963495408491,2.527137644316E-02));
#209 = CARTESIAN_POINT('',(-2.356194490188,-6.601654657432E-02));
#210 = CARTESIAN_POINT('',(-2.748893571891,-0.185358749072));
#211 = CARTESIAN_POINT('',(-3.534291735289,-0.424041250928));
#212 = CARTESIAN_POINT('',(-3.926990816984,-0.543383453426));
#213 = CARTESIAN_POINT('',(-4.319689898671,-0.634671376442));
#214 = CARTESIAN_POINT('',(-4.71238898036,-0.66992657822));
#215 = CARTESIAN_POINT('',(-5.105088062064,-0.634671376441));
#216 = CARTESIAN_POINT('',(-5.497787143782,-0.543383453426));
#217 = CARTESIAN_POINT('',(-5.890486225481,-0.424041250928));
#218 = CARTESIAN_POINT('',(-6.28318530718,-0.3047));
#219 = ( GEOMETRIC_REPRESENTATION_CONTEXT(2) 
PARAMETRIC_REPRESENTATION_CONTEXT() REPRESENTATION_CONTEXT('2D SPACE',''
  ) );
#220 = PCURVE('',#221,#226);
#221 = PLANE('',#222);
#222 = AXIS2_PLACEMENT_3D('',#223,#224,#225);
#223 = CARTESIAN_POINT('',(0.,0.3047,0.));
#224 = DIRECTION('',(-0.,0.707106781187,0.707106781187));
#225 = DIRECTION('',(0.,-0.707106781187,0.707106781187));
#226 = DEFINITIONAL_REPRESENTATION('',(#227),#231);
#227 = ELLIPSE('',#228,0.429779501605,0.3039);
#228 = AXIS2_PLACEMENT_2D('',#229,#230);
#229 = CARTESIAN_POINT('',(0.430910872455,7.E-03));
#230 = DIRECTION('',(-1.,0.));
#231 = ( GEOMETRIC_REPRESENTATION_CONTEXT(2) 
PARAMETRIC_REPRESENTATION_CONTEXT() REPRESENTATION_CONTEXT('2D SPACE',''
  ) );
#232 = ORIENTED_EDGE('',*,*,#163,.T.);
#233 = ORIENTED_EDGE('',*,*,#234,.F.);
#234 = EDGE_CURVE('',#235,#166,#237,.T.);
#235 = VERTEX_POINT('',#236);
#236 = CARTESIAN_POINT('',(6.135264482985E-02,0.299,0.1452));
#237 = SURFACE_CURVE('',#238,(#243,#263),.PCURVE_S1.);
#238 = ELLIPSE('',#239,0.43216750097,0.3039);
#239 = AXIS2_PLACEMENT_3D('',#240,#241,#242);
#240 = CARTESIAN_POINT('',(7.E-03,0.,0.447513559322));
#241 = DIRECTION('',(0.,-0.710992522829,-0.703199568033));
#242 = DIRECTION('',(-0.,0.703199568033,-0.710992522829));
#243 = PCURVE('',#174,#244);
#244 = DEFINITIONAL_REPRESENTATION('',(#245),#262);
#245 = B_SPLINE_CURVE_WITH_KNOTS('',8,(#246,#247,#248,#249,#250,#251,
    #252,#253,#254,#255,#256,#257,#258,#259,#260,#261),.UNSPECIFIED.,.F.
  ,.F.,(9,7,9),(3.318225876326,5.58610375515,7.853981633974),
  .UNSPECIFIED.);
#246 = CARTESIAN_POINT('',(-4.535755757649,-0.7500006));
#247 = CARTESIAN_POINT('',(-4.252271022796,-0.734694710435));
#248 = CARTESIAN_POINT('',(-3.968786287943,-0.691605184988));
#249 = CARTESIAN_POINT('',(-3.68530155309,-0.622620922071));
#250 = CARTESIAN_POINT('',(-3.401816818237,-0.534330656321));
#251 = CARTESIAN_POINT('',(-3.118332083384,-0.437753461679));
#252 = CARTESIAN_POINT('',(-2.83484734853,-0.345402594768));
#253 = CARTESIAN_POINT('',(-2.551362613678,-0.267845830068));
#254 = CARTESIAN_POINT('',(-1.984393143971,-0.15600504656));
#255 = CARTESIAN_POINT('',(-1.700908409117,-0.121722218359));
#256 = CARTESIAN_POINT('',(-1.417423674266,-0.115923343068));
#257 = CARTESIAN_POINT('',(-1.133938939405,-0.141752811059));
#258 = CARTESIAN_POINT('',(-0.850454204562,-0.196864795463));
#259 = CARTESIAN_POINT('',(-0.566969469704,-0.273301810662));
#260 = CARTESIAN_POINT('',(-0.283484734853,-0.360407810991));
#261 = CARTESIAN_POINT('',(-3.061616997868E-16,-0.447513559322));
#262 = ( GEOMETRIC_REPRESENTATION_CONTEXT(2) 
PARAMETRIC_REPRESENTATION_CONTEXT() REPRESENTATION_CONTEXT('2D SPACE',''
  ) );
#263 = PCURVE('',#264,#269);
#264 = PLANE('',#265);
#265 = AXIS2_PLACEMENT_3D('',#266,#267,#268);
#266 = CARTESIAN_POINT('',(0.,-0.3146,0.7656));
#267 = DIRECTION('',(0.,-0.710992522829,-0.703199568033));
#268 = DIRECTION('',(0.,0.703199568033,-0.710992522829));
#269 = DEFINITIONAL_REPRESENTATION('',(#270),#274);
#270 = ELLIPSE('',#271,0.43216750097,0.3039);
#271 = AXIS2_PLACEMENT_2D('',#272,#273);
#272 = CARTESIAN_POINT('',(0.447383665038,7.E-03));
#273 = DIRECTION('',(1.,0.));
#274 = ( GEOMETRIC_REPRESENTATION_CONTEXT(2) 
PARAMETRIC_REPRESENTATION_CONTEXT() REPRESENTATION_CONTEXT('2D SPACE',''
  ) );
#275 = ORIENTED_EDGE('',*,*,#276,.F.);
#276 = EDGE_CURVE('',#277,#235,#279,.T.);
#277 = VERTEX_POINT('',#278);
#278 = CARTESIAN_POINT('',(-4.735264482985E-02,0.299,0.1452));
#279 = SURFACE_CURVE('',#280,(#285,#295),.PCURVE_S1.);
#280 = ELLIPSE('',#281,14.423819615579,0.3039);
#281 = AXIS2_PLACEMENT_3D('',#282,#283,#284);
#282 = CARTESIAN_POINT('',(7.E-03,0.,-14.0429037037));
#283 = DIRECTION('',(0.,0.999778017343,-2.106931507045E-02));
#284 = DIRECTION('',(0.,-2.106931507045E-02,-0.999778017343));
#285 = PCURVE('',#174,#286);
#286 = DEFINITIONAL_REPRESENTATION('',(#287),#294);
#287 = B_SPLINE_CURVE_WITH_KNOTS('',5,(#288,#289,#290,#291,#292,#293),
  .UNSPECIFIED.,.F.,.F.,(6,6),(2.938433316845,3.344751990335),
  .PIECEWISE_BEZIER_KNOTS.);
#288 = CARTESIAN_POINT('',(-1.77395566354,-8.114E-02));
#289 = CARTESIAN_POINT('',(-1.692691928842,-0.317582649743));
#290 = CARTESIAN_POINT('',(-1.611428194144,-0.437436913921));
#291 = CARTESIAN_POINT('',(-1.530164459446,-0.437436913921));
#292 = CARTESIAN_POINT('',(-1.448900724748,-0.317582649743));
#293 = CARTESIAN_POINT('',(-1.36763699005,-8.114E-02));
#294 = ( GEOMETRIC_REPRESENTATION_CONTEXT(2) 
PARAMETRIC_REPRESENTATION_CONTEXT() REPRESENTATION_CONTEXT('2D SPACE',''
  ) );
#295 = PCURVE('',#296,#301);
#296 = PLANE('',#297);
#297 = AXIS2_PLACEMENT_3D('',#298,#299,#300);
#298 = CARTESIAN_POINT('',(0.,0.299,0.1452));
#299 = DIRECTION('',(0.,0.999778017343,-2.106931507045E-02));
#300 = DIRECTION('',(0.,2.106931507045E-02,0.999778017343));
#301 = DEFINITIONAL_REPRESENTATION('',(#302),#306);
#302 = ELLIPSE('',#303,14.423819615579,0.3039);
#303 = AXIS2_PLACEMENT_2D('',#304,#305);
#304 = CARTESIAN_POINT('',(-14.19125391595,7.E-03));
#305 = DIRECTION('',(-1.,0.));
#306 = ( GEOMETRIC_REPRESENTATION_CONTEXT(2) 
PARAMETRIC_REPRESENTATION_CONTEXT() REPRESENTATION_CONTEXT('2D SPACE',''
  ) );
#307 = ORIENTED_EDGE('',*,*,#308,.F.);
#308 = EDGE_CURVE('',#309,#277,#311,.T.);
#309 = VERTEX_POINT('',#310);
#310 = CARTESIAN_POINT('',(-4.640347236222E-02,-0.29917098646,0.75));
#311 = SURFACE_CURVE('',#312,(#317,#337),.PCURVE_S1.);
#312 = ELLIPSE('',#313,0.43216750097,0.3039);
#313 = AXIS2_PLACEMENT_3D('',#314,#315,#316);
#314 = CARTESIAN_POINT('',(7.E-03,0.,0.447513559322));
#315 = DIRECTION('',(0.,-0.710992522829,-0.703199568033));
#316 = DIRECTION('',(-0.,0.703199568033,-0.710992522829));
#317 = PCURVE('',#174,#318);
#318 = DEFINITIONAL_REPRESENTATION('',(#319),#336);
#319 = B_SPLINE_CURVE_WITH_KNOTS('',8,(#320,#321,#322,#323,#324,#325,
    #326,#327,#328,#329,#330,#331,#332,#333,#334,#335),.UNSPECIFIED.,.F.
  ,.F.,(9,7,9),(3.318225876326,5.58610375515,7.853981633974),
  .UNSPECIFIED.);
#320 = CARTESIAN_POINT('',(-4.535755757649,-0.7500006));
#321 = CARTESIAN_POINT('',(-4.252271022796,-0.734694710435));
#322 = CARTESIAN_POINT('',(-3.968786287943,-0.691605184988));
#323 = CARTESIAN_POINT('',(-3.68530155309,-0.622620922071));
#324 = CARTESIAN_POINT('',(-3.401816818237,-0.534330656321));
#325 = CARTESIAN_POINT('',(-3.118332083384,-0.437753461679));
#326 = CARTESIAN_POINT('',(-2.83484734853,-0.345402594768));
#327 = CARTESIAN_POINT('',(-2.551362613678,-0.267845830068));
#328 = CARTESIAN_POINT('',(-1.984393143971,-0.15600504656));
#329 = CARTESIAN_POINT('',(-1.700908409117,-0.121722218359));
#330 = CARTESIAN_POINT('',(-1.417423674266,-0.115923343068));
#331 = CARTESIAN_POINT('',(-1.133938939405,-0.141752811059));
#332 = CARTESIAN_POINT('',(-0.850454204562,-0.196864795463));
#333 = CARTESIAN_POINT('',(-0.566969469704,-0.273301810662));
#334 = CARTESIAN_POINT('',(-0.283484734853,-0.360407810991));
#335 = CARTESIAN_POINT('',(-3.061616997868E-16,-0.447513559322));
#336 = ( GEOMETRIC_REPRESENTATION_CONTEXT(2) 
PARAMETRIC_REPRESENTATION_CONTEXT() REPRESENTATION_CONTEXT('2D SPACE',''
  ) );
#337 = PCURVE('',#264,#338);
#338 = DEFINITIONAL_REPRESENTATION('',(#339),#343);
#339 = ELLIPSE('',#340,0.43216750097,0.3039);
#340 = AXIS2_PLACEMENT_2D('',#341,#342);
#341 = CARTESIAN_POINT('',(0.447383665038,7.E-03));
#342 = DIRECTION('',(1.,0.));
#343 = ( GEOMETRIC_REPRESENTATION_CONTEXT(2) 
PARAMETRIC_REPRESENTATION_CONTEXT() REPRESENTATION_CONTEXT('2D SPACE',''
  ) );
#344 = ORIENTED_EDGE('',*,*,#345,.T.);
#345 = EDGE_CURVE('',#309,#346,#348,.T.);
#346 = VERTEX_POINT('',#347);
#347 = CARTESIAN_POINT('',(6.040347236222E-02,-0.29917098646,0.75));
#348 = SURFACE_CURVE('',#349,(#354,#361),.PCURVE_S1.);
#349 = CIRCLE('',#350,0.3039);
#350 = AXIS2_PLACEMENT_3D('',#351,#352,#353);
#351 = CARTESIAN_POINT('',(7.E-03,0.,0.75));
#352 = DIRECTION('',(0.,0.,1.));
#353 = DIRECTION('',(1.,0.,0.));
#354 = PCURVE('',#174,#355);
#355 = DEFINITIONAL_REPRESENTATION('',(#356),#360);
#356 = LINE('',#357,#358);
#357 = CARTESIAN_POINT('',(-0.,-0.75));
#358 = VECTOR('',#359,1.);
#359 = DIRECTION('',(-1.,0.));
#360 = ( GEOMETRIC_REPRESENTATION_CONTEXT(2) 
PARAMETRIC_REPRESENTATION_CONTEXT() REPRESENTATION_CONTEXT('2D SPACE',''
  ) );
#361 = PCURVE('',#362,#367);
#362 = PLANE('',#363);
#363 = AXIS2_PLACEMENT_3D('',#364,#365,#366);
#364 = CARTESIAN_POINT('',(7.E-03,2.274775351024E-17,0.75));
#365 = DIRECTION('',(0.,0.,1.));
#366 = DIRECTION('',(1.,0.,-0.));
#367 = DEFINITIONAL_REPRESENTATION('',(#368),#372);
#368 = CIRCLE('',#369,0.3039);
#369 = AXIS2_PLACEMENT_2D('',#370,#371);
#370 = CARTESIAN_POINT('',(2.081668171172E-17,-2.274775351024E-17));
#371 = DIRECTION('',(1.,0.));
#372 = ( GEOMETRIC_REPRESENTATION_CONTEXT(2) 
PARAMETRIC_REPRESENTATION_CONTEXT() REPRESENTATION_CONTEXT('2D SPACE',''
  ) );
#373 = ORIENTED_EDGE('',*,*,#374,.F.);
#374 = EDGE_CURVE('',#166,#346,#375,.T.);
#375 = SURFACE_CURVE('',#376,(#381,#392),.PCURVE_S1.);
#376 = ELLIPSE('',#377,0.43216750097,0.3039);
#377 = AXIS2_PLACEMENT_3D('',#378,#379,#380);
#378 = CARTESIAN_POINT('',(7.E-03,0.,0.447513559322));
#379 = DIRECTION('',(0.,-0.710992522829,-0.703199568033));
#380 = DIRECTION('',(-0.,0.703199568033,-0.710992522829));
#381 = PCURVE('',#174,#382);
#382 = DEFINITIONAL_REPRESENTATION('',(#383),#391);
#383 = B_SPLINE_CURVE_WITH_KNOTS('',6,(#384,#385,#386,#387,#388,#389,
    #390),.UNSPECIFIED.,.F.,.F.,(7,7),(1.570796326795,2.964959430854),
  .PIECEWISE_BEZIER_KNOTS.);
#384 = CARTESIAN_POINT('',(-6.28318530718,-0.447513559322));
#385 = CARTESIAN_POINT('',(-6.050824789836,-0.518910478653));
#386 = CARTESIAN_POINT('',(-5.818464272493,-0.590304540217));
#387 = CARTESIAN_POINT('',(-5.58610375515,-0.654778332144));
#388 = CARTESIAN_POINT('',(-5.353743237807,-0.705313938443));
#389 = CARTESIAN_POINT('',(-5.121382720464,-0.737455005897));
#390 = CARTESIAN_POINT('',(-4.88902220312,-0.7500006));
#391 = ( GEOMETRIC_REPRESENTATION_CONTEXT(2) 
PARAMETRIC_REPRESENTATION_CONTEXT() REPRESENTATION_CONTEXT('2D SPACE',''
  ) );
#392 = PCURVE('',#264,#393);
#393 = DEFINITIONAL_REPRESENTATION('',(#394),#398);
#394 = ELLIPSE('',#395,0.43216750097,0.3039);
#395 = AXIS2_PLACEMENT_2D('',#396,#397);
#396 = CARTESIAN_POINT('',(0.447383665038,7.E-03));
#397 = DIRECTION('',(1.,0.));
#398 = ( GEOMETRIC_REPRESENTATION_CONTEXT(2) 
PARAMETRIC_REPRESENTATION_CONTEXT() REPRESENTATION_CONTEXT('2D SPACE',''
  ) );
#399 = ADVANCED_FACE('',(#400),#264,.F.);
#400 = FACE_BOUND('',#401,.F.);
#401 = EDGE_LOOP('',(#402,#403,#424,#425,#426));
#402 = ORIENTED_EDGE('',*,*,#308,.T.);
#403 = ORIENTED_EDGE('',*,*,#404,.T.);
#404 = EDGE_CURVE('',#277,#235,#405,.T.);
#405 = SURFACE_CURVE('',#406,(#410,#417),.PCURVE_S1.);
#406 = LINE('',#407,#408);
#407 = CARTESIAN_POINT('',(-0.375,0.299,0.1452));
#408 = VECTOR('',#409,1.);
#409 = DIRECTION('',(1.,0.,0.));
#410 = PCURVE('',#264,#411);
#411 = DEFINITIONAL_REPRESENTATION('',(#412),#416);
#412 = LINE('',#413,#414);
#413 = CARTESIAN_POINT('',(0.872583016108,-0.375));
#414 = VECTOR('',#415,1.);
#415 = DIRECTION('',(0.,1.));
#416 = ( GEOMETRIC_REPRESENTATION_CONTEXT(2) 
PARAMETRIC_REPRESENTATION_CONTEXT() REPRESENTATION_CONTEXT('2D SPACE',''
  ) );
#417 = PCURVE('',#296,#418);
#418 = DEFINITIONAL_REPRESENTATION('',(#419),#423);
#419 = LINE('',#420,#421);
#420 = CARTESIAN_POINT('',(0.,-0.375));
#421 = VECTOR('',#422,1.);
#422 = DIRECTION('',(0.,1.));
#423 = ( GEOMETRIC_REPRESENTATION_CONTEXT(2) 
PARAMETRIC_REPRESENTATION_CONTEXT() REPRESENTATION_CONTEXT('2D SPACE',''
  ) );
#424 = ORIENTED_EDGE('',*,*,#234,.T.);
#425 = ORIENTED_EDGE('',*,*,#374,.T.);
#426 = ORIENTED_EDGE('',*,*,#427,.F.);
#427 = EDGE_CURVE('',#309,#346,#428,.T.);
#428 = SURFACE_CURVE('',#429,(#433,#439),.PCURVE_S1.);
#429 = LINE('',#430,#431);
#430 = CARTESIAN_POINT('',(3.5E-03,-0.29917098646,0.75));
#431 = VECTOR('',#432,1.);
#432 = DIRECTION('',(1.,0.,-0.));
#433 = PCURVE('',#264,#434);
#434 = DEFINITIONAL_REPRESENTATION('',(#435),#438);
#435 = B_SPLINE_CURVE_WITH_KNOTS('',1,(#436,#437),.UNSPECIFIED.,.F.,.F.,
  (2,2),(-0.3004,0.3074),.PIECEWISE_BEZIER_KNOTS.);
#436 = CARTESIAN_POINT('',(2.194115901238E-02,-0.2969));
#437 = CARTESIAN_POINT('',(2.194115901238E-02,0.3109));
#438 = ( GEOMETRIC_REPRESENTATION_CONTEXT(2) 
PARAMETRIC_REPRESENTATION_CONTEXT() REPRESENTATION_CONTEXT('2D SPACE',''
  ) );
#439 = PCURVE('',#362,#440);
#440 = DEFINITIONAL_REPRESENTATION('',(#441),#444);
#441 = B_SPLINE_CURVE_WITH_KNOTS('',1,(#442,#443),.UNSPECIFIED.,.F.,.F.,
  (2,2),(-0.3004,0.3074),.PIECEWISE_BEZIER_KNOTS.);
#442 = CARTESIAN_POINT('',(-0.3039,-0.29917098646));
#443 = CARTESIAN_POINT('',(0.3039,-0.29917098646));
#444 = ( GEOMETRIC_REPRESENTATION_CONTEXT(2) 
PARAMETRIC_REPRESENTATION_CONTEXT() REPRESENTATION_CONTEXT('2D SPACE',''
  ) );
#445 = ADVANCED_FACE('',(#446),#362,.T.);
#446 = FACE_BOUND('',#447,.T.);
#447 = EDGE_LOOP('',(#448,#449));
#448 = ORIENTED_EDGE('',*,*,#427,.F.);
#449 = ORIENTED_EDGE('',*,*,#345,.T.);
#450 = ADVANCED_FACE('',(#451),#296,.F.);
#451 = FACE_BOUND('',#452,.F.);
#452 = EDGE_LOOP('',(#453,#454));
#453 = ORIENTED_EDGE('',*,*,#404,.F.);
#454 = ORIENTED_EDGE('',*,*,#276,.T.);
#455 = ADVANCED_FACE('',(#456),#221,.F.);
#456 = FACE_BOUND('',#457,.F.);
#457 = EDGE_LOOP('',(#458));
#458 = ORIENTED_EDGE('',*,*,#193,.T.);
#459 = ( GEOMETRIC_REPRESENTATION_CONTEXT(3) 
GLOBAL_UNCERTAINTY_ASSIGNED_CONTEXT((#463)) GLOBAL_UNIT_ASSIGNED_CONTEXT
((#460,#461,#462)) REPRESENTATION_CONTEXT('Context #1',
  '3D Context with UNIT and UNCERTAINTY') );
#460 = ( LENGTH_UNIT() NAMED_UNIT(*) SI_UNIT(.MILLI.,.METRE.) );
#461 = ( NAMED_UNIT(*) PLANE_ANGLE_UNIT() SI_UNIT($,.RADIAN.) );
#462 = ( NAMED_UNIT(*) SI_UNIT($,.STERADIAN.) SOLID_ANGLE_UNIT() );
#463 = UNCERTAINTY_MEASURE_WITH_UNIT(LENGTH_MEASURE(2.E-07),#460,
  'distance_accuracy_value','confusion accuracy');
#464 = CONTEXT_DEPENDENT_SHAPE_REPRESENTATION(#465,#467);
#465 = ( REPRESENTATION_RELATIONSHIP('','',#156,#10) 
REPRESENTATION_RELATIONSHIP_WITH_TRANSFORMATION(#466) 
SHAPE_REPRESENTATION_RELATIONSHIP() );
#466 = ITEM_DEFINED_TRANSFORMATION('','',#11,#19);
#467 = PRODUCT_DEFINITION_SHAPE('Placement','Placement of an item',#468
  );
#468 = NEXT_ASSEMBLY_USAGE_OCCURRENCE('2','','',#5,#151,$);
#469 = PRODUCT_RELATED_PRODUCT_CATEGORY('part',$,(#153));
ENDSEC;
END-ISO-10303-21;
